<svg width="26" height="25" viewBox="0 0 26 25" fill="none" xmlns="http://www.w3.org/2000/svg">
<path d="M7.3749 0C7.61625 0 7.84771 0.0921872 8.01837 0.256282C8.18902 0.420376 8.2849 0.642936 8.2849 0.875V2.51125H18.057V0.88625C18.057 0.654186 18.1529 0.431626 18.3235 0.267532C18.4942 0.103437 18.7257 0.01125 18.967 0.01125C19.2083 0.01125 19.4398 0.103437 19.6105 0.267532C19.7811 0.431626 19.877 0.654186 19.877 0.88625V2.51125H23.4C24.0893 2.51125 24.7505 2.77447 25.238 3.24304C25.7256 3.71161 25.9997 4.34718 26 5.01V22.5012C25.9997 23.1641 25.7256 23.7996 25.238 24.2682C24.7505 24.7368 24.0893 25 23.4 25H2.6C1.91066 25 1.24954 24.7368 0.761982 24.2682C0.274425 23.7996 0.000344669 23.1641 0 22.5012L0 5.01C0.000344669 4.34718 0.274425 3.71161 0.761982 3.24304C1.24954 2.77447 1.91066 2.51125 2.6 2.51125H6.4649V0.87375C6.46524 0.641902 6.56127 0.419664 6.73189 0.255839C6.90251 0.0920154 7.13378 -2.36579e-07 7.3749 0ZM1.82 9.6775V22.5012C1.82 22.5997 1.84018 22.6973 1.87937 22.7883C1.91857 22.8793 1.97603 22.9619 2.04846 23.0316C2.12089 23.1012 2.20687 23.1565 2.30151 23.1942C2.39614 23.2319 2.49757 23.2512 2.6 23.2512H23.4C23.5024 23.2512 23.6039 23.2319 23.6985 23.1942C23.7931 23.1565 23.8791 23.1012 23.9515 23.0316C24.024 22.9619 24.0814 22.8793 24.1206 22.7883C24.1598 22.6973 24.18 22.5997 24.18 22.5012V9.695L1.82 9.6775ZM8.6671 18.2738V20.3563H6.5V18.2738H8.6671ZM14.0829 18.2738V20.3563H11.9171V18.2738H14.0829ZM19.5 18.2738V20.3563H17.3329V18.2738H19.5ZM8.6671 13.3025V15.385H6.5V13.3025H8.6671ZM14.0829 13.3025V15.385H11.9171V13.3025H14.0829ZM19.5 13.3025V15.385H17.3329V13.3025H19.5ZM6.4649 4.26H2.6C2.49757 4.26 2.39614 4.2794 2.30151 4.31709C2.20687 4.35478 2.12089 4.41003 2.04846 4.47967C1.97603 4.54931 1.91857 4.63199 1.87937 4.72299C1.84018 4.81398 1.82 4.91151 1.82 5.01V7.92875L24.18 7.94625V5.01C24.18 4.91151 24.1598 4.81398 24.1206 4.72299C24.0814 4.63199 24.024 4.54931 23.9515 4.47967C23.8791 4.41003 23.7931 4.35478 23.6985 4.31709C23.6039 4.2794 23.5024 4.26 23.4 4.26H19.877V5.42125C19.877 5.65331 19.7811 5.87587 19.6105 6.03997C19.4398 6.20406 19.2083 6.29625 18.967 6.29625C18.7257 6.29625 18.4942 6.20406 18.3235 6.03997C18.1529 5.87587 18.057 5.65331 18.057 5.42125V4.26H8.2849V5.41C8.2849 5.64206 8.18902 5.86462 8.01837 6.02872C7.84771 6.19281 7.61625 6.285 7.3749 6.285C7.13355 6.285 6.90209 6.19281 6.73143 6.02872C6.56077 5.86462 6.4649 5.64206 6.4649 5.41V4.26Z" fill="#1E1E1E"/>
</svg>
