<svg width="20" height="24" viewBox="0 0 20 24" fill="none" xmlns="http://www.w3.org/2000/svg">
<path fill-rule="evenodd" clip-rule="evenodd" d="M14.4727 0C15.8958 0 17.2605 0.659507 18.2667 1.83344C19.2729 3.00737 19.8382 4.59956 19.8382 6.25975C19.8382 6.73225 19.6762 7.18725 19.3882 7.52325L18.5962 8.449L15.6397 11.8982L8.05124 20.7515C7.42295 21.4841 6.62285 21.9834 5.75174 22.1865L1.79474 23.1105C1.55252 23.1671 1.30206 23.1531 1.0656 23.0696C0.829148 22.9862 0.614024 22.8359 0.43934 22.6321C0.264656 22.4283 0.135821 22.1773 0.064278 21.9014C-0.00726461 21.6256 -0.0192992 21.3333 0.029243 21.0508L0.821243 16.4342C0.99529 15.418 1.42326 14.4845 2.05124 13.7515L9.63974 4.89825L13.3897 0.52325C13.6762 0.189 14.0662 0 14.4727 0ZM11.0077 7.01575L3.64274 15.6082C3.32888 15.9745 3.11491 16.4409 3.02774 16.9488L2.95196 17.3915C2.71727 18.7627 3.95596 19.9298 5.31074 19.614C5.74656 19.5126 6.14689 19.263 6.46124 18.8965L12.2295 12.1668C13.2517 10.9744 13.9477 9.25718 12.9256 8.06472C12.4106 7.46383 11.7316 7.09211 11.0062 7.014M17.1968 6.3661C16.5045 7.17314 15.1573 6.9331 14.4529 6.13663C14.4172 6.09634 14.3811 6.05662 14.3445 6.01747C13.6845 5.3113 13.4441 4.16813 14.0731 3.43422L14.1965 3.29024C14.547 2.8814 15.0914 2.64118 15.5831 2.86069C16.5185 3.27827 17.2377 4.20791 17.4891 5.35548C17.5683 5.71707 17.4378 6.08514 17.1968 6.3661Z" fill="#1E1E1E"/>
</svg>
