<svg width="20" height="24" viewBox="0 0 20 24" fill="none" xmlns="http://www.w3.org/2000/svg">
<path d="M7.61161 2.41875L6.76339 3.75H13.2366L12.3884 2.41875C12.3214 2.31562 12.2098 2.25 12.0893 2.25H7.90625C7.78571 2.25 7.67411 2.31094 7.60714 2.41875H7.61161ZM14.1741 1.17188L15.8125 3.75H18.9286C19.5223 3.75 20 4.25156 20 4.875C20 5.49844 19.5223 6 18.9286 6H18.5714V20.25C18.5714 22.3219 16.9732 24 15 24H5C3.02679 24 1.42857 22.3219 1.42857 20.25V6H1.07143C0.477679 6 0 5.49844 0 4.875C0 4.25156 0.477679 3.75 1.07143 3.75H4.1875L5.82589 1.16719C6.29018 0.440625 7.07143 0 7.90625 0H12.0893C12.9241 0 13.7054 0.440625 14.1696 1.16719L14.1741 1.17188ZM3.57143 6V20.25C3.57143 21.0797 4.20982 21.75 5 21.75H15C15.7902 21.75 16.4286 21.0797 16.4286 20.25V6H3.57143ZM7.14286 9V18.75C7.14286 19.1625 6.82143 19.5 6.42857 19.5C6.03571 19.5 5.71429 19.1625 5.71429 18.75V9C5.71429 8.5875 6.03571 8.25 6.42857 8.25C6.82143 8.25 7.14286 8.5875 7.14286 9ZM10.7143 9V18.75C10.7143 19.1625 10.3929 19.5 10 19.5C9.60714 19.5 9.28571 19.1625 9.28571 18.75V9C9.28571 8.5875 9.60714 8.25 10 8.25C10.3929 8.25 10.7143 8.5875 10.7143 9ZM14.2857 9V18.75C14.2857 19.1625 13.9643 19.5 13.5714 19.5C13.1786 19.5 12.8571 19.1625 12.8571 18.75V9C12.8571 8.5875 13.1786 8.25 13.5714 8.25C13.9643 8.25 14.2857 8.5875 14.2857 9Z" fill="#1E1E1E"/>
</svg>
